<svg xmlns="http://www.w3.org/2000/svg" viewBox="0 0 24 24">
  <rect x="2" y="2" width="2" height="1"/>
  <rect x="2" y="3" width="2" height="1"/>
  <rect x="2" y="4" width="2" height="1"/>
  <rect x="19" y="4" width="2" height="1"/>
  <rect x="2" y="5" width="2" height="1"/>
  <rect x="19" y="5" width="2" height="1"/>
  <rect x="2" y="6" width="2" height="1"/>
  <rect x="18" y="6" width="3" height="1"/>
  <rect x="2" y="7" width="2" height="1"/>
  <rect x="18" y="7" width="2" height="1"/>
  <rect x="2" y="8" width="2" height="1"/>
  <rect x="9" y="8" width="4" height="1"/>
  <rect x="17" y="8" width="3" height="1"/>
  <rect x="2" y="9" width="2" height="1"/>
  <rect x="8" y="9" width="6" height="1"/>
  <rect x="17" y="9" width="2" height="1"/>
  <rect x="2" y="10" width="2" height="1"/>
  <rect x="8" y="10" width="7" height="1"/>
  <rect x="16" y="10" width="3" height="1"/>
  <rect x="2" y="11" width="2" height="1"/>
  <rect x="7" y="11" width="3" height="1"/>
  <rect x="12" y="11" width="6" height="1"/>
  <rect x="2" y="12" width="2" height="1"/>
  <rect x="7" y="12" width="2" height="1"/>
  <rect x="13" y="12" width="4" height="1"/>
  <rect x="2" y="13" width="2" height="1"/>
  <rect x="7" y="13" width="2" height="1"/>
  <rect x="2" y="14" width="2" height="1"/>
  <rect x="6" y="14" width="2" height="1"/>
  <rect x="2" y="15" width="2" height="1"/>
  <rect x="6" y="15" width="2" height="1"/>
  <rect x="2" y="16" width="2" height="1"/>
  <rect x="6" y="16" width="2" height="1"/>
  <rect x="2" y="17" width="2" height="1"/>
  <rect x="2" y="18" width="2" height="1"/>
  <rect x="2" y="19" width="3" height="1"/>
  <rect x="2" y="20" width="20" height="1"/>
  <rect x="3" y="21" width="19" height="1"/>
</svg>
