<svg xmlns="http://www.w3.org/2000/svg" viewBox="0 0 24 24">
  <rect x="14" y="3" width="2" height="1"/>
  <rect x="14" y="4" width="3" height="1"/>
  <rect x="15" y="5" width="3" height="1"/>
  <rect x="16" y="6" width="3" height="1"/>
  <rect x="15" y="7" width="5" height="1"/>
  <rect x="7" y="8" width="14" height="1"/>
  <rect x="5" y="9" width="16" height="1"/>
  <rect x="4" y="10" width="4" height="1"/>
  <rect x="15" y="10" width="5" height="1"/>
  <rect x="4" y="11" width="3" height="1"/>
  <rect x="16" y="11" width="3" height="1"/>
  <rect x="3" y="12" width="3" height="1"/>
  <rect x="15" y="12" width="3" height="1"/>
  <rect x="3" y="13" width="2" height="1"/>
  <rect x="14" y="13" width="3" height="1"/>
  <rect x="3" y="14" width="2" height="1"/>
  <rect x="14" y="14" width="2" height="1"/>
  <rect x="3" y="15" width="2" height="1"/>
  <rect x="3" y="16" width="3" height="1"/>
  <rect x="4" y="17" width="3" height="1"/>
  <rect x="4" y="18" width="4" height="1"/>
  <rect x="5" y="19" width="9" height="1"/>
  <rect x="7" y="20" width="7" height="1"/>
</svg>
