<svg xmlns="http://www.w3.org/2000/svg" viewBox="0 0 24 24">
  <rect x="9" y="1" width="6" height="1"/>
  <rect x="7" y="2" width="10" height="1"/>
  <rect x="6" y="3" width="4" height="1"/>
  <rect x="14" y="3" width="4" height="1"/>
  <rect x="5" y="4" width="4" height="1"/>
  <rect x="15" y="4" width="4" height="1"/>
  <rect x="4" y="5" width="5" height="1"/>
  <rect x="15" y="5" width="5" height="1"/>
  <rect x="4" y="6" width="5" height="1"/>
  <rect x="15" y="6" width="5" height="1"/>
  <rect x="3" y="7" width="6" height="1"/>
  <rect x="15" y="7" width="6" height="1"/>
  <rect x="3" y="8" width="2" height="1"/>
  <rect x="7" y="8" width="2" height="1"/>
  <rect x="15" y="8" width="2" height="1"/>
  <rect x="19" y="8" width="2" height="1"/>
  <rect x="3" y="9" width="2" height="1"/>
  <rect x="8" y="9" width="2" height="1"/>
  <rect x="14" y="9" width="2" height="1"/>
  <rect x="19" y="9" width="2" height="1"/>
  <rect x="3" y="10" width="2" height="1"/>
  <rect x="8" y="10" width="8" height="1"/>
  <rect x="19" y="10" width="2" height="1"/>
  <rect x="3" y="11" width="2" height="1"/>
  <rect x="10" y="11" width="4" height="1"/>
  <rect x="19" y="11" width="2" height="1"/>
  <rect x="3" y="12" width="2" height="1"/>
  <rect x="9" y="12" width="1" height="1"/>
  <rect x="14" y="12" width="1" height="1"/>
  <rect x="19" y="12" width="2" height="1"/>
  <rect x="3" y="13" width="2" height="1"/>
  <rect x="7" y="13" width="2" height="1"/>
  <rect x="15" y="13" width="2" height="1"/>
  <rect x="19" y="13" width="2" height="1"/>
  <rect x="3" y="14" width="2" height="1"/>
  <rect x="7" y="14" width="3" height="1"/>
  <rect x="14" y="14" width="3" height="1"/>
  <rect x="19" y="14" width="2" height="1"/>
  <rect x="3" y="15" width="2" height="1"/>
  <rect x="6" y="15" width="1" height="1"/>
  <rect x="8" y="15" width="2" height="1"/>
  <rect x="14" y="15" width="2" height="1"/>
  <rect x="17" y="15" width="1" height="1"/>
  <rect x="19" y="15" width="2" height="1"/>
  <rect x="3" y="16" width="3" height="1"/>
  <rect x="7" y="16" width="1" height="1"/>
  <rect x="16" y="16" width="1" height="1"/>
  <rect x="18" y="16" width="3" height="1"/>
  <rect x="4" y="17" width="3" height="1"/>
  <rect x="17" y="17" width="3" height="1"/>
  <rect x="5" y="18" width="14" height="1"/>
  <rect x="6" y="19" width="12" height="1"/>
  <rect x="6" y="20" width="3" height="1"/>
  <rect x="15" y="20" width="3" height="1"/>
  <rect x="5" y="21" width="3" height="1"/>
  <rect x="16" y="21" width="3" height="1"/>
  <rect x="5" y="22" width="2" height="1"/>
  <rect x="17" y="22" width="2" height="1"/>
</svg>
