<svg xmlns="http://www.w3.org/2000/svg" viewBox="0 0 24 24">
  <rect x="8" y="2" width="4" height="1"/>
  <rect x="6" y="3" width="8" height="1"/>
  <rect x="6" y="4" width="2" height="1"/>
  <rect x="12" y="4" width="2" height="1"/>
  <rect x="5" y="5" width="2" height="1"/>
  <rect x="13" y="5" width="2" height="1"/>
  <rect x="5" y="6" width="2" height="1"/>
  <rect x="13" y="6" width="2" height="1"/>
  <rect x="5" y="7" width="2" height="1"/>
  <rect x="13" y="7" width="2" height="1"/>
  <rect x="5" y="8" width="2" height="1"/>
  <rect x="13" y="8" width="2" height="1"/>
  <rect x="6" y="9" width="2" height="1"/>
  <rect x="12" y="9" width="2" height="1"/>
  <rect x="6" y="10" width="8" height="1"/>
  <rect x="19" y="10" width="2" height="1"/>
  <rect x="8" y="11" width="4" height="1"/>
  <rect x="19" y="11" width="3" height="1"/>
  <rect x="19" y="12" width="4" height="1"/>
  <rect x="19" y="13" width="4" height="1"/>
  <rect x="5" y="14" width="10" height="1"/>
  <rect x="19" y="14" width="3" height="1"/>
  <rect x="3" y="15" width="13" height="1"/>
  <rect x="19" y="15" width="2" height="1"/>
  <rect x="3" y="16" width="2" height="1"/>
  <rect x="15" y="16" width="2" height="1"/>
  <rect x="18" y="16" width="4" height="1"/>
  <rect x="2" y="17" width="2" height="1"/>
  <rect x="16" y="17" width="7" height="1"/>
  <rect x="2" y="18" width="2" height="1"/>
  <rect x="17" y="18" width="6" height="1"/>
  <rect x="2" y="19" width="2" height="1"/>
  <rect x="17" y="19" width="6" height="1"/>
  <rect x="2" y="20" width="2" height="1"/>
  <rect x="17" y="20" width="6" height="1"/>
  <rect x="2" y="21" width="2" height="1"/>
  <rect x="18" y="21" width="4" height="1"/>
</svg>
