<svg xmlns="http://www.w3.org/2000/svg" viewBox="0 0 24 24">
  <rect x="7" y="4" width="10" height="1"/>
  <rect x="7" y="5" width="10" height="1"/>
  <rect x="7" y="6" width="3" height="1"/>
  <rect x="14" y="6" width="3" height="1"/>
  <rect x="1" y="7" width="2" height="1"/>
  <rect x="7" y="7" width="2" height="1"/>
  <rect x="15" y="7" width="2" height="1"/>
  <rect x="21" y="7" width="2" height="1"/>
  <rect x="1" y="8" width="3" height="1"/>
  <rect x="7" y="8" width="2" height="1"/>
  <rect x="15" y="8" width="2" height="1"/>
  <rect x="20" y="8" width="3" height="1"/>
  <rect x="2" y="9" width="3" height="1"/>
  <rect x="7" y="9" width="2" height="1"/>
  <rect x="15" y="9" width="2" height="1"/>
  <rect x="19" y="9" width="3" height="1"/>
  <rect x="2" y="10" width="3" height="1"/>
  <rect x="7" y="10" width="2" height="1"/>
  <rect x="15" y="10" width="2" height="1"/>
  <rect x="19" y="10" width="3" height="1"/>
  <rect x="1" y="11" width="3" height="1"/>
  <rect x="7" y="11" width="2" height="1"/>
  <rect x="15" y="11" width="2" height="1"/>
  <rect x="20" y="11" width="3" height="1"/>
  <rect x="1" y="12" width="3" height="1"/>
  <rect x="7" y="12" width="2" height="1"/>
  <rect x="15" y="12" width="2" height="1"/>
  <rect x="20" y="12" width="3" height="1"/>
  <rect x="2" y="13" width="3" height="1"/>
  <rect x="7" y="13" width="2" height="1"/>
  <rect x="15" y="13" width="2" height="1"/>
  <rect x="19" y="13" width="3" height="1"/>
  <rect x="2" y="14" width="3" height="1"/>
  <rect x="7" y="14" width="2" height="1"/>
  <rect x="15" y="14" width="2" height="1"/>
  <rect x="19" y="14" width="3" height="1"/>
  <rect x="1" y="15" width="3" height="1"/>
  <rect x="7" y="15" width="2" height="1"/>
  <rect x="15" y="15" width="2" height="1"/>
  <rect x="20" y="15" width="3" height="1"/>
  <rect x="1" y="16" width="2" height="1"/>
  <rect x="7" y="16" width="2" height="1"/>
  <rect x="15" y="16" width="2" height="1"/>
  <rect x="21" y="16" width="2" height="1"/>
  <rect x="7" y="17" width="3" height="1"/>
  <rect x="14" y="17" width="3" height="1"/>
  <rect x="7" y="18" width="10" height="1"/>
  <rect x="7" y="19" width="10" height="1"/>
</svg>
