<svg xmlns="http://www.w3.org/2000/svg" viewBox="0 0 24 24">
  <rect x="7" y="4" width="5" height="1"/>
  <rect x="17" y="4" width="5" height="1"/>
  <rect x="1" y="5" width="2" height="1"/>
  <rect x="6" y="5" width="7" height="1"/>
  <rect x="16" y="5" width="7" height="1"/>
  <rect x="1" y="6" width="7" height="1"/>
  <rect x="11" y="6" width="7" height="1"/>
  <rect x="21" y="6" width="2" height="1"/>
  <rect x="2" y="7" width="5" height="1"/>
  <rect x="12" y="7" width="5" height="1"/>
  <rect x="7" y="10" width="5" height="1"/>
  <rect x="17" y="10" width="5" height="1"/>
  <rect x="1" y="11" width="2" height="1"/>
  <rect x="6" y="11" width="7" height="1"/>
  <rect x="16" y="11" width="7" height="1"/>
  <rect x="1" y="12" width="7" height="1"/>
  <rect x="11" y="12" width="7" height="1"/>
  <rect x="21" y="12" width="2" height="1"/>
  <rect x="2" y="13" width="5" height="1"/>
  <rect x="12" y="13" width="5" height="1"/>
  <rect x="7" y="16" width="5" height="1"/>
  <rect x="17" y="16" width="5" height="1"/>
  <rect x="1" y="17" width="2" height="1"/>
  <rect x="6" y="17" width="7" height="1"/>
  <rect x="16" y="17" width="7" height="1"/>
  <rect x="1" y="18" width="7" height="1"/>
  <rect x="11" y="18" width="7" height="1"/>
  <rect x="21" y="18" width="2" height="1"/>
  <rect x="2" y="19" width="5" height="1"/>
  <rect x="12" y="19" width="5" height="1"/>
</svg>
