<svg xmlns="http://www.w3.org/2000/svg" width="24" height="24" viewBox="0 0 24 24" fill="currentColor" shape-rendering="crispEdges">
  <defs>
    <symbol id="px" viewBox="0 0 1 1" overflow="visible" preserveAspectRatio="none">
      <rect width="1" height="1" />
    </symbol>
  </defs>
  <use href="#px" x="6" y="3" width="2" height="1"/>
  <use href="#px" x="16" y="3" width="2" height="1"/>
  <use href="#px" x="6" y="4" width="3" height="1"/>
  <use href="#px" x="15" y="4" width="3" height="1"/>
  <use href="#px" x="7" y="5" width="3" height="1"/>
  <use href="#px" x="14" y="5" width="3" height="1"/>
  <use href="#px" x="8" y="6" width="3" height="1"/>
  <use href="#px" x="13" y="6" width="3" height="1"/>
  <use href="#px" x="9" y="7" width="6" height="1"/>
  <use href="#px" x="10" y="8" width="4" height="1"/>
  <use href="#px" x="11" y="9" width="2" height="1"/>
  <use href="#px" x="11" y="14" width="2" height="1"/>
  <use href="#px" x="10" y="15" width="4" height="1"/>
  <use href="#px" x="9" y="16" width="6" height="1"/>
  <use href="#px" x="8" y="17" width="3" height="1"/>
  <use href="#px" x="13" y="17" width="3" height="1"/>
  <use href="#px" x="7" y="18" width="3" height="1"/>
  <use href="#px" x="14" y="18" width="3" height="1"/>
  <use href="#px" x="6" y="19" width="3" height="1"/>
  <use href="#px" x="15" y="19" width="3" height="1"/>
  <use href="#px" x="6" y="20" width="2" height="1"/>
  <use href="#px" x="16" y="20" width="2" height="1"/>
</svg>
