<svg xmlns="http://www.w3.org/2000/svg" width="24" height="24" viewBox="0 0 24 24" fill="currentColor" shape-rendering="crispEdges">
  <defs>
    <symbol id="px" viewBox="0 0 1 1" overflow="visible" preserveAspectRatio="none">
      <rect width="1" height="1" />
    </symbol>
  </defs>
  <use href="#px" x="13" y="1" width="5" height="1"/>
  <use href="#px" x="13" y="2" width="5" height="1"/>
  <use href="#px" x="12" y="3" width="6" height="1"/>
  <use href="#px" x="10" y="4" width="8" height="1"/>
  <use href="#px" x="10" y="5" width="9" height="1"/>
  <use href="#px" x="9" y="6" width="7" height="1"/>
  <use href="#px" x="17" y="6" width="6" height="1"/>
  <use href="#px" x="7" y="7" width="8" height="1"/>
  <use href="#px" x="16" y="7" width="1" height="1"/>
  <use href="#px" x="18" y="7" width="5" height="1"/>
  <use href="#px" x="7" y="8" width="9" height="1"/>
  <use href="#px" x="17" y="8" width="6" height="1"/>
  <use href="#px" x="6" y="9" width="7" height="1"/>
  <use href="#px" x="14" y="9" width="9" height="1"/>
  <use href="#px" x="4" y="10" width="8" height="1"/>
  <use href="#px" x="13" y="10" width="1" height="1"/>
  <use href="#px" x="15" y="10" width="8" height="1"/>
  <use href="#px" x="4" y="11" width="9" height="1"/>
  <use href="#px" x="14" y="11" width="7" height="1"/>
  <use href="#px" x="3" y="12" width="7" height="1"/>
  <use href="#px" x="11" y="12" width="9" height="1"/>
  <use href="#px" x="1" y="13" width="8" height="1"/>
  <use href="#px" x="10" y="13" width="1" height="1"/>
  <use href="#px" x="12" y="13" width="8" height="1"/>
  <use href="#px" x="1" y="14" width="9" height="1"/>
  <use href="#px" x="11" y="14" width="7" height="1"/>
  <use href="#px" x="1" y="15" width="6" height="1"/>
  <use href="#px" x="8" y="15" width="9" height="1"/>
  <use href="#px" x="1" y="16" width="5" height="1"/>
  <use href="#px" x="7" y="16" width="1" height="1"/>
  <use href="#px" x="9" y="16" width="8" height="1"/>
  <use href="#px" x="1" y="17" width="6" height="1"/>
  <use href="#px" x="8" y="17" width="7" height="1"/>
  <use href="#px" x="5" y="18" width="9" height="1"/>
  <use href="#px" x="6" y="19" width="8" height="1"/>
  <use href="#px" x="6" y="20" width="6" height="1"/>
  <use href="#px" x="6" y="21" width="5" height="1"/>
  <use href="#px" x="6" y="22" width="5" height="1"/>
</svg>
