<svg xmlns="http://www.w3.org/2000/svg" width="24" height="24" viewBox="0 0 24 24" fill="currentColor" shape-rendering="crispEdges">
  <defs>
    <symbol id="px" viewBox="0 0 1 1" overflow="visible" preserveAspectRatio="none">
      <rect width="1" height="1" />
    </symbol>
  </defs>
  <use href="#px" x="8" y="2" width="4" height="1"/>
  <use href="#px" x="6" y="3" width="8" height="1"/>
  <use href="#px" x="5" y="4" width="3" height="1"/>
  <use href="#px" x="12" y="4" width="3" height="1"/>
  <use href="#px" x="5" y="5" width="2" height="1"/>
  <use href="#px" x="13" y="5" width="2" height="1"/>
  <use href="#px" x="4" y="6" width="2" height="1"/>
  <use href="#px" x="14" y="6" width="2" height="1"/>
  <use href="#px" x="4" y="7" width="2" height="1"/>
  <use href="#px" x="14" y="7" width="2" height="1"/>
  <use href="#px" x="4" y="8" width="2" height="1"/>
  <use href="#px" x="14" y="8" width="2" height="1"/>
  <use href="#px" x="4" y="9" width="2" height="1"/>
  <use href="#px" x="14" y="9" width="2" height="1"/>
  <use href="#px" x="5" y="10" width="2" height="1"/>
  <use href="#px" x="13" y="10" width="2" height="1"/>
  <use href="#px" x="5" y="11" width="3" height="1"/>
  <use href="#px" x="12" y="11" width="3" height="1"/>
  <use href="#px" x="5" y="12" width="9" height="1"/>
  <use href="#px" x="15" y="12" width="1" height="1"/>
  <use href="#px" x="5" y="13" width="8" height="1"/>
  <use href="#px" x="14" y="13" width="1" height="1"/>
  <use href="#px" x="16" y="13" width="1" height="1"/>
  <use href="#px" x="19" y="13" width="1" height="1"/>
  <use href="#px" x="4" y="14" width="4" height="1"/>
  <use href="#px" x="13" y="14" width="1" height="1"/>
  <use href="#px" x="15" y="14" width="6" height="1"/>
  <use href="#px" x="3" y="15" width="3" height="1"/>
  <use href="#px" x="14" y="15" width="8" height="1"/>
  <use href="#px" x="2" y="16" width="3" height="1"/>
  <use href="#px" x="13" y="16" width="4" height="1"/>
  <use href="#px" x="19" y="16" width="4" height="1"/>
  <use href="#px" x="2" y="17" width="2" height="1"/>
  <use href="#px" x="14" y="17" width="2" height="1"/>
  <use href="#px" x="20" y="17" width="2" height="1"/>
  <use href="#px" x="1" y="18" width="3" height="1"/>
  <use href="#px" x="14" y="18" width="2" height="1"/>
  <use href="#px" x="20" y="18" width="2" height="1"/>
  <use href="#px" x="1" y="19" width="2" height="1"/>
  <use href="#px" x="13" y="19" width="4" height="1"/>
  <use href="#px" x="19" y="19" width="4" height="1"/>
  <use href="#px" x="1" y="20" width="2" height="1"/>
  <use href="#px" x="14" y="20" width="8" height="1"/>
  <use href="#px" x="1" y="21" width="2" height="1"/>
  <use href="#px" x="15" y="21" width="6" height="1"/>
  <use href="#px" x="16" y="22" width="1" height="1"/>
  <use href="#px" x="19" y="22" width="1" height="1"/>
</svg>
